<svg 
 xmlns="http://www.w3.org/2000/svg"
 xmlns:xlink="http://www.w3.org/1999/xlink"
 width="13px" height="17px">
<path fill-rule="evenodd"  fill="rgb(115, 71, 193)"
 d="M11.182,16.999 L1.818,16.999 C0.816,16.999 -0.000,16.187 -0.000,15.190 L-0.000,1.809 C-0.000,0.812 0.816,-0.001 1.818,-0.001 L8.681,-0.001 L13.000,4.281 L13.000,15.190 C13.000,16.187 12.184,16.999 11.182,16.999 ZM11.859,4.720 L9.525,4.727 C8.829,4.727 8.264,4.165 8.264,3.472 L8.264,1.101 L1.818,1.108 C1.430,1.108 1.114,1.422 1.114,1.809 L1.114,15.190 C1.114,15.577 1.430,15.891 1.818,15.891 L11.182,15.891 C11.570,15.891 11.886,15.577 11.886,15.190 L11.859,4.720 ZM9.020,8.899 C9.836,9.200 10.220,9.622 10.220,10.271 C10.220,11.042 9.623,11.697 8.354,11.697 C7.826,11.697 7.305,11.561 7.044,11.417 L7.257,10.558 C7.538,10.701 7.970,10.845 8.416,10.845 C8.896,10.845 9.150,10.646 9.150,10.346 C9.150,10.059 8.931,9.896 8.375,9.698 C7.607,9.431 7.106,9.009 7.106,8.340 C7.106,7.554 7.765,6.954 8.855,6.954 C9.377,6.954 9.760,7.064 10.035,7.186 L9.802,8.026 C9.616,7.937 9.287,7.807 8.834,7.807 C8.382,7.807 8.162,8.012 8.162,8.251 C8.162,8.544 8.423,8.674 9.020,8.899 ZM4.627,10.005 C4.490,10.005 4.367,9.998 4.271,9.985 L4.271,11.629 L3.235,11.629 L3.235,7.091 C3.558,7.037 4.010,6.995 4.648,6.995 C5.293,6.995 5.753,7.118 6.061,7.364 C6.356,7.596 6.555,7.979 6.555,8.429 C6.555,8.880 6.404,9.261 6.130,9.520 C5.773,9.855 5.245,10.005 4.627,10.005 ZM4.703,7.780 C4.490,7.780 4.346,7.800 4.271,7.821 L4.271,9.179 C4.360,9.200 4.470,9.207 4.621,9.207 C5.176,9.207 5.519,8.927 5.519,8.456 C5.519,8.032 5.224,7.780 4.703,7.780 Z"/>
</svg>